<svg xmlns="http://www.w3.org/2000/svg" viewBox="0 0 486 126"><defs><style>.cls-1{fill:#7ebba4;}.cls-2{fill:#39b54a;}.cls-3{fill:#231f20;}.cls-4{fill:none;}.cls-5{fill:#007853;}</style></defs><title>Asset 1</title><g id="Layer_2" data-name="Layer 2"><g id="Layer_1-2" data-name="Layer 1"><path class="cls-1" d="M0,108.79H3.76l2.17,13H6l2.18-13h3.66v17.07H9.6V110.49h0L7.14,125.86H4.78L2.13,110.49h0v15.37H0Z"/><path class="cls-1" d="M21.08,108.79h2.36v17.07H21.08Z"/><path class="cls-1" d="M35.69,117l-3.43-8.2h2.51l2.22,6,2.22-6h2.37l-3.41,8.44,3.53,8.63H39.19l-2.32-6.27-2.5,6.27H32Z"/><path class="cls-1" d="M50.33,108.79h6.43v2H52.7v5.34h3.83v2H52.7v5.77h4.06v2H50.33Z"/><path class="cls-1" d="M65.36,108.79h3.8c3.83,0,4.14,1.28,4.14,6.24v5.08c0,4.38-.78,5.75-4.52,5.75H65.36Zm2.36,15.08h1.13c1.75,0,2.09-.92,2.09-3.85v-5.86c0-2.53-.26-3.38-2.27-3.38h-1Z"/><path class="cls-1" d="M82.32,119H88v1.85H82.32Z"/><path class="cls-1" d="M97.12,108.79h3.67c3.45,0,3.8.92,3.8,4.66,0,2.29-.3,3.28-2.24,3.87v.05c1.6.17,2.15,1,2.15,2.6v3.71a11.89,11.89,0,0,0,.14,2.18h-2.22a2.91,2.91,0,0,1-.29-1.54v-3.85c0-1.61-.28-2-1.84-2h-.8v7.43H97.12Zm2.37,7.66h.61c1.87,0,2.13-.36,2.13-2.91s-.14-2.76-1.61-2.76H99.49Z"/><path class="cls-1" d="M113.89,108.79h6.43v2h-4.06v5.34h3.83v2h-3.83v5.77h4.06v2h-6.43Z"/><path class="cls-1" d="M132.06,108.79h2.74l3.47,17.07h-2.36l-.78-4.35h-3.69l-.78,4.35H128.3Zm-.26,10.73h3l-1.47-8.22h-.05Z"/><path class="cls-1" d="M147,108.79h2.37v15.08h4v2H147Z"/><path class="cls-1" d="M161.94,108.79h2.36v17.07h-2.36Z"/><path class="cls-1" d="M172.82,108.79h8v2H178v15.08h-2.37V110.78h-2.83Z"/><path class="cls-1" d="M188.92,108.79h2.36l2.06,7.18h0l2.36-7.18h2.08l-3.28,10.07v7h-2.37v-7Z"/><path class="cls-1" d="M218.34,113.14c0-2.39.79-4.49,4-4.49,2.34,0,3.43,1.18,3.43,3.09v1.71h-2.23v-1.19c0-1.08-.37-1.77-1.37-1.77-1.23,0-1.46.88-1.46,2.93v8.37c0,2,.64,2.37,1.39,2.37s1.44-.62,1.44-2v-1.18h2.23v1.89c0,1.8-.74,3.17-3.48,3.17-3,0-3.95-1.58-3.95-4.23Z"/><path class="cls-1" d="M237.36,108.79h2.74l3.48,17.07h-2.37l-.78-4.35h-3.69l-.78,4.35H233.6Zm-.26,10.73h3l-1.46-8.22h0Z"/><path class="cls-1" d="M252.29,108.79h3.9c3.21,0,3.83.87,3.83,4.82s-.62,4.82-3.83,4.82h-1.54v7.43h-2.36Zm2.36,7.66h1.23c1.61,0,1.77-.26,1.77-2.84s-.16-2.83-1.77-2.83h-1.23Z"/><path class="cls-1" d="M268.33,108.79h8v2h-2.83v15.08h-2.37V110.78h-2.83Z"/><path class="cls-1" d="M292.9,122c0,2-.78,4-4,4s-4-2-4-4V108.79h2.37v13.62c0,1.15.42,1.75,1.65,1.75s1.63-.6,1.63-1.75V108.79h2.37Z"/><path class="cls-1" d="M302.15,108.79h3.66c3.45,0,3.81.92,3.81,4.66,0,2.29-.31,3.28-2.25,3.87v.05c1.61.17,2.15,1,2.15,2.6v3.71a11.11,11.11,0,0,0,.15,2.18h-2.23a3,3,0,0,1-.28-1.54v-3.85c0-1.61-.28-2-1.84-2h-.81v7.43h-2.36Zm2.36,7.66h.62c1.86,0,2.12-.36,2.12-2.91s-.14-2.76-1.6-2.76h-1.14Z"/><path class="cls-1" d="M318.92,108.79h6.43v2h-4.07v5.34h3.83v2h-3.83v5.77h4.07v2h-6.43Z"/><path class="cls-1" d="M345.65,120.92H348v1.39c0,1.14.43,1.85,1.37,1.85,1.26,0,1.56-.85,1.56-2,0-1.44-.07-1.91-2.53-4.35-1.51-1.51-2.76-2.88-2.76-5.2,0-2.79,1.3-4,3.87-4a4,4,0,0,1,2.77.94,2.75,2.75,0,0,1,.69,2.18v1.61h-2.23V112c0-1-.4-1.54-1.32-1.54S348,111,348,112.36c0,1.16.24,1.87,2.41,4.14s2.75,3.23,2.75,5.29c0,2.67-1.05,4.21-3.86,4.21-2.17,0-3.66-.92-3.66-3Z"/><path class="cls-1" d="M361.5,108.79h8v2H366.7v15.08h-2.37V110.78H361.5Z"/><path class="cls-1" d="M386.07,122c0,2-.78,4-4,4s-4-2-4-4V108.79h2.37v13.62c0,1.15.42,1.75,1.65,1.75s1.63-.6,1.63-1.75V108.79h2.37Z"/><path class="cls-1" d="M395.32,108.79h3.81c3.82,0,4.13,1.28,4.13,6.24v5.08c0,4.38-.78,5.75-4.51,5.75h-3.43Zm2.36,15.08h1.14c1.75,0,2.08-.92,2.08-3.85v-5.86c0-2.53-.26-3.38-2.27-3.38h-.95Z"/><path class="cls-1" d="M412.44,108.79h2.37v17.07h-2.37Z"/><path class="cls-1" d="M424,113.14c0-2.39.78-4.49,4-4.49,3,0,4,1.58,4,4.23v8.63c0,2.39-.78,4.49-4,4.49-3,0-4-1.58-4-4.23Zm2.36,8.77c0,1.46.66,2.25,1.63,2.25s1.66-.79,1.66-2.25v-9c0-1.68-.57-2.46-1.66-2.46s-1.63.78-1.63,2.46Z"/><path class="cls-2" d="M194.62,39.89c9.86,0,18.16,3.43,19,14.43h-6.74c-.63-6.54-6.44-8.72-12.87-8.72-5.82,0-11.73,2.28-11.73,8.41,0,7.68,10.07,7,24.18,11.93a12.67,12.67,0,0,1,8.82,12.15c0,11.73-10.89,17-21.9,17-9,0-19.41-4.25-19.61-15.78h6.74c.52,7.79,7.37,10.07,14.43,10.07,6.64,0,13.6-3.11,13.6-10.38,0-7.47-8.2-8.72-16.51-10.58s-16.5-4.36-16.5-14C175.52,43.63,185.49,39.89,194.62,39.89Z"/><path class="cls-2" d="M231.57,47.16H221.19V41.45h10.38V30.34l6.23-2.7V41.45h11.83v5.71H237.8V82c-.11,4.78,2.39,7.37,7.16,7.37a18.31,18.31,0,0,0,5.4-.62v5.4a25.89,25.89,0,0,1-6.33.93c-13.19,0-12.46-8.41-12.46-15.46Z"/><path class="cls-2" d="M294,41.45h6.23V81.83c0,4,.31,8.19.52,11.72h-6.44L294,85.87l-.21-.2a17.92,17.92,0,0,1-16.29,9.44c-17,0-18.37-15-18.37-21.07V41.45h6.22V75.08c0,9,5.19,14.32,13.71,14.32,10.27,0,14.94-8.61,14.94-18Z"/><path class="cls-2" d="M348.55,85.87l-.21-.41a21.15,21.15,0,0,1-17.85,9.65c-15.47,0-21.38-14.74-21.38-27.82,0-13.49,5.91-27.4,21.38-27.4,6.95,0,14.22,3.32,17.85,9.45l.21-.21V18.61h6.23V81.83c0,4,.31,8.19.52,11.72h-6.44Zm-17-40.27c-11.84,0-15.68,11-15.68,21,0,9.65,2.81,22.83,14.74,22.83,13.6,0,17.75-11.31,17.75-23.14C348.34,55.67,343.67,45.6,331.53,45.6Z"/><path class="cls-2" d="M375.12,26.4h-7.26V18.61h7.26Zm-.52,15.05v52.1h-6.22V41.45Z"/><path class="cls-2" d="M432,67.5c0,13.7-7.68,27.61-24.29,27.61S383.43,81.2,383.43,67.5s7.68-27.61,24.28-27.61S432,53.8,432,67.5ZM407.71,45.6c-12.56,0-17.54,12.25-17.54,21.9s5,21.9,17.54,21.9,17.54-12.25,17.54-21.9S420.27,45.6,407.71,45.6Z"/><path class="cls-3" d="M95,93.55H88.75V53.18c.1-4-.31-8.2-.52-11.73h6.43L95,49.13h.21c1.87-5.29,6.54-9,11.73-9.24a61.68,61.68,0,0,1,6.23.11v6c-1.25-.11-2.6-.42-3.84-.42-9.24,0-14.12,6.64-14.33,16.61Z"/><path class="cls-3" d="M154.14,57.43c-.52-8-5.61-11.83-14.22-11.83-9.55,0-15.47,10-15.47,21.8s5.92,22,15.47,22c8.09,0,13.7-5,14.22-12.14h6.74c-1.66,11.93-8.51,17.85-20.34,17.85-15.57,0-22.83-13.39-22.83-27.61S125.49,39.89,141,39.89c10.69,0,19.41,6.44,19.92,17.54Z"/><path class="cls-3" d="M41,59.73s-.12-15.1,14.26-14.22,14.45,16.7,14.45,16.7V93.55h6.16v-33S76.36,40,55.44,40c0,0-12.52-.43-17.51,7.91h0C32.94,39.52,20.42,40,20.42,40-.51,40,0,60.57,0,60.57v33H6.17V62.21s.08-15.82,14.45-16.7S34.87,59.73,34.87,59.73v33.7H41V59.73Z"/><path class="cls-4" d="M461.47,10.71V7.05a6.55,6.55,0,0,0-4.94,0v3.68a16.51,16.51,0,0,0-13.82,13.82H439a6.55,6.55,0,0,0,0,4.94h3.66a16.51,16.51,0,0,0,13.82,13.82V47a6.55,6.55,0,0,0,4.94,0V43.29a16.51,16.51,0,0,0,13.82-13.82H479a6.55,6.55,0,0,0,0-4.94h-3.66A16.51,16.51,0,0,0,461.47,10.71Z"/><path class="cls-5" d="M463.63,8.47a6.33,6.33,0,0,0-2.16-1.42v3.66a16.51,16.51,0,0,1,13.82,13.82H479a6.33,6.33,0,0,0-1.42-2.16l-4.63-4.64,4.55-4.54a22.88,22.88,0,0,0-4.64-4.63l-4.54,4.54Z"/><path class="cls-2" d="M482.17,17.73l-4.64-4.63-.08.09a23,23,0,0,1,4.49,11.34h-3a6.55,6.55,0,0,1,0,4.94h3a22.87,22.87,0,0,1-4.5,11.34l.09.09,4.64-4.63A13.13,13.13,0,0,0,482.17,17.73Z"/><path class="cls-3" d="M477.53,22.37A6.33,6.33,0,0,1,479,24.53h3a23,23,0,0,0-4.49-11.34l-4.55,4.54Z"/><path class="cls-5" d="M477.53,31.63A6.39,6.39,0,0,0,479,29.47h-3.68a16.51,16.51,0,0,1-13.82,13.82V47a6.33,6.33,0,0,0,2.16-1.42l4.64-4.63,4.54,4.54a23.08,23.08,0,0,0,4.63-4.63l-4.54-4.54Z"/><path class="cls-3" d="M479,29.47a6.39,6.39,0,0,1-1.44,2.16l-4.63,4.64,4.54,4.54a22.87,22.87,0,0,0,4.5-11.34Z"/><path class="cls-5" d="M454.37,45.53A6.39,6.39,0,0,0,456.53,47V43.29a16.51,16.51,0,0,1-13.82-13.82h-3.66a6.33,6.33,0,0,0,1.42,2.16l4.63,4.64-4.54,4.54a23.08,23.08,0,0,0,4.63,4.63l4.54-4.54Z"/><path class="cls-5" d="M440.47,22.37A6.39,6.39,0,0,0,439,24.53h3.68a16.51,16.51,0,0,1,13.82-13.82V7a6.39,6.39,0,0,0-2.16,1.44l-4.64,4.63-4.54-4.54a23.08,23.08,0,0,0-4.63,4.63l4.54,4.54Z"/><path class="cls-2" d="M456.53,7a6.55,6.55,0,0,1,4.94,0v-3a22.86,22.86,0,0,1,11.34,4.49l.09-.09-4.63-4.64a13.13,13.13,0,0,0-18.54,0L445.1,8.47l.09.09a22.86,22.86,0,0,1,11.34-4.49Z"/><path class="cls-3" d="M461.47,7.05a6.33,6.33,0,0,1,2.16,1.42l4.64,4.63,4.54-4.54a22.86,22.86,0,0,0-11.34-4.49Z"/><path class="cls-3" d="M454.37,8.47A6.39,6.39,0,0,1,456.53,7v-3a22.86,22.86,0,0,0-11.34,4.49l4.54,4.54Z"/><path class="cls-2" d="M439.05,29.47a6.55,6.55,0,0,1,0-4.94h-3a22.87,22.87,0,0,1,4.5-11.34l-.09-.09-4.64,4.63a13.13,13.13,0,0,0,0,18.54l4.64,4.63.09-.09a23,23,0,0,1-4.5-11.34Z"/><path class="cls-3" d="M440.47,31.63a6.33,6.33,0,0,1-1.42-2.16h-3a23,23,0,0,0,4.5,11.34l4.54-4.54Z"/><path class="cls-3" d="M439,24.53a6.39,6.39,0,0,1,1.44-2.16l4.63-4.64-4.54-4.54a22.87,22.87,0,0,0-4.5,11.34Z"/><path class="cls-2" d="M461.47,47a6.55,6.55,0,0,1-4.94,0v3a22.86,22.86,0,0,1-11.34-4.49l-.09.09,4.63,4.64a13.13,13.13,0,0,0,18.54,0l4.63-4.64-.09-.09a22.86,22.86,0,0,1-11.34,4.49Z"/><path class="cls-3" d="M463.63,45.53A6.33,6.33,0,0,1,461.47,47v3a22.86,22.86,0,0,0,11.34-4.49l-4.54-4.54Z"/><path class="cls-3" d="M456.53,47a6.39,6.39,0,0,1-2.16-1.44l-4.64-4.63-4.54,4.54a22.86,22.86,0,0,0,11.34,4.49Z"/></g></g></svg>